<?xml version="1.0" standalone="no"?>
<!DOCTYPE svg PUBLIC "-//W3C//DTD SVG 20010904//EN"
 "http://www.w3.org/TR/2001/REC-SVG-20010904/DTD/svg10.dtd">
<svg version="1.0" xmlns="http://www.w3.org/2000/svg"
 width="1456.000000pt" height="1577.000000pt" viewBox="0 0 1456.000000 1577.000000"
 preserveAspectRatio="xMidYMid meet">

<g transform="translate(0.000000,1577.000000) scale(0.100000,-0.100000)"
fill="#000000" stroke="none">
<path d="M985 15740 c-245 -52 -432 -155 -611 -334 -160 -160 -258 -328 -322
-554 l-27 -97 -3 -7377 -2 -7378 1210 0 1210 0 1 5313 0 5312 1907 -3811
c1049 -2096 1925 -3835 1946 -3865 73 -100 131 -162 223 -239 480 -399 1183
-366 1626 75 45 45 107 117 137 160 37 53 669 1305 1957 3879 l1902 3801 0
-5312 1 -5313 1210 0 1210 0 -3 7367 -2 7368 -23 85 c-120 451 -424 769 -852
893 -148 43 -240 49 -695 45 l-420 -4 -120 -32 c-291 -77 -552 -263 -709 -505
-30 -45 -1041 -2056 -2247 -4469 -1207 -2414 -2196 -4388 -2199 -4388 -3 0
-994 1977 -2202 4393 -1208 2415 -2221 4428 -2250 4472 -29 44 -95 123 -148
176 -172 173 -360 275 -615 336 -59 14 -144 17 -535 19 -428 3 -472 2 -555
-16z"/>
</g>
</svg>
